<svg xmlns="http://www.w3.org/2000/svg" width="716" height="145" fill="none" viewBox="0 0 716 145"><path fill="#121212" d="M0.496582 129.397C4.10385 128.225 7.44058 126.151 10.5068 123.175C13.6631 120.199 15.9628 116.456 17.4057 111.947C18.3977 108.881 19.1191 105.228 19.57 100.99C20.0209 96.6611 20.2464 90.6189 20.2464 82.8633V20.7731L8.07185 18.8793V10.4924H51.3591V18.8793L39.9962 20.6378V73.8C39.9962 83.4495 39.8609 90.9345 39.5904 96.2553C39.41 101.486 38.9591 105.679 38.2377 108.836C36.3439 116.14 32.466 122.183 26.6042 126.962C20.7424 131.832 13.5279 134.988 4.96058 136.431L0.496582 129.397ZM90.5375 112.488C78.6335 112.488 69.7506 109.016 63.8888 102.072C58.1171 95.0378 55.2313 85.4785 55.2313 73.3942C55.2313 65.2778 56.7193 58.2436 59.6953 52.2916C62.7615 46.3396 67.0451 41.7855 72.5462 38.6291C78.0473 35.4727 84.4051 33.8945 91.6197 33.8945C100.638 33.8945 107.582 36.2844 112.452 41.064C117.321 45.7535 119.847 52.472 120.027 61.2196C120.027 67.1716 119.666 71.5905 118.945 74.4764H74.9811C75.3419 82.6829 77.2808 89.0858 80.7979 93.6851C84.3149 98.1942 89.32 100.449 95.8131 100.449C99.3302 100.449 102.937 99.8625 106.635 98.6902C110.423 97.5178 113.399 96.12 115.563 94.4967L118.945 101.937C116.51 104.552 112.542 106.987 107.041 109.241C101.63 111.406 96.1288 112.488 90.5375 112.488ZM101.089 66.36C101.269 63.8349 101.359 61.896 101.359 60.5433C101.359 48.5491 97.3462 42.552 89.32 42.552C84.9011 42.552 81.4742 44.3105 79.0393 47.8276C76.6044 51.3447 75.2517 57.5222 74.9811 66.36H101.089ZM154.36 112.488C148.769 112.488 143.763 111.18 139.345 108.565C134.926 105.86 131.409 101.711 128.793 96.12C126.178 90.5287 124.87 83.5396 124.87 75.1527C124.87 67.5775 126.403 60.6785 129.47 54.456C132.626 48.1433 137.225 43.1382 143.267 39.4407C149.31 35.7433 156.569 33.8945 165.046 33.8945C168.473 33.8945 171.72 34.2553 174.786 34.9767V12.1156L161.529 10.2218V2.78182L189.395 0.0763622H189.801L193.589 2.91709V102.748H200.894V110.459C194.401 111.812 189.035 112.488 184.796 112.488C181.91 112.488 179.836 111.992 178.574 111C177.401 110.098 176.815 108.249 176.815 105.454V101.666C174.47 104.823 171.269 107.438 167.211 109.512C163.153 111.496 158.869 112.488 154.36 112.488ZM161.394 101.26C164.37 101.26 166.985 100.674 169.24 99.5018C171.585 98.2393 173.433 96.7513 174.786 95.0378V45.7985C174.155 44.8967 172.802 44.1302 170.728 43.4989C168.744 42.8676 166.579 42.552 164.235 42.552C158.463 42.552 153.819 45.0771 150.302 50.1273C146.875 55.0873 145.161 63.0684 145.161 74.0705C145.161 83.2691 146.649 90.1229 149.625 94.632C152.601 99.0509 156.524 101.26 161.394 101.26ZM218.07 144.683C216.447 144.683 214.688 144.548 212.794 144.277C210.991 144.007 209.683 143.691 208.872 143.33V128.856C209.503 129.217 210.765 129.577 212.659 129.938C214.553 130.299 216.266 130.479 217.8 130.479C222.309 130.479 226.006 128.991 228.892 126.015C231.868 123.039 234.618 118.034 237.144 111H229.839L204.408 45.3927L198.32 43.6342V35.7884H235.52V43.6342L225.645 45.2575L237.685 82.728L242.554 98.6902L246.748 82.728L257.84 45.2575L249.318 43.6342V35.7884H278.672V43.6342L272.044 45.2575C267.084 60.408 262.169 75.0175 257.299 89.0858C252.429 103.154 249.589 111.045 248.777 112.759C245.891 120.334 243.141 126.376 240.525 130.885C237.91 135.394 234.799 138.821 231.192 141.166C227.584 143.511 223.21 144.683 218.07 144.683ZM312.929 112.488C308.059 112.488 303.685 112.082 299.808 111.271C295.93 110.459 291.601 109.377 286.821 108.024C283.665 107.122 281.546 106.626 280.464 106.536L281.681 81.5105H292.638L295.614 98.9607C296.786 100.223 298.861 101.351 301.837 102.343C304.903 103.335 308.375 103.831 312.253 103.831C318.295 103.831 322.804 102.523 325.78 99.9076C328.846 97.2022 330.379 93.4596 330.379 88.68C330.379 85.5236 329.477 82.8182 327.674 80.5636C325.87 78.2189 323.39 76.1447 320.234 74.3411C317.077 72.4473 312.749 70.2829 307.248 67.848C299.762 64.4211 293.54 60.3629 288.58 55.6735C283.71 50.8938 281.275 44.4458 281.275 36.3295C281.275 31.2793 282.583 26.7251 285.198 22.6669C287.813 18.5185 291.691 15.272 296.832 12.9273C302.062 10.4924 308.42 9.27491 315.905 9.27491C320.324 9.27491 324.202 9.59054 327.538 10.2218C330.965 10.8531 334.663 11.7098 338.631 12.792C340.976 13.4233 342.734 13.8291 343.906 14.0095L343.095 37.6822H332.273L329.432 21.0436C328.621 20.232 326.997 19.4655 324.562 18.744C322.128 17.9324 319.422 17.5265 316.446 17.5265C311.035 17.5265 306.932 18.7891 304.136 21.3142C301.431 23.7491 300.078 27.0407 300.078 31.1891C300.078 34.5258 301.07 37.4116 303.054 39.8465C305.128 42.2815 307.608 44.3556 310.494 46.0691C313.38 47.6924 317.934 50.0371 324.157 53.1033C329.207 55.5382 333.536 57.928 337.143 60.2727C340.75 62.6175 343.861 65.6836 346.477 69.4713C349.092 73.1687 350.4 77.5425 350.4 82.5927C350.4 87.5527 349.137 92.2873 346.612 96.7964C344.177 101.305 340.119 105.048 334.437 108.024C328.846 111 321.677 112.488 312.929 112.488ZM378.339 112.217C372.657 112.217 368.464 110.91 365.758 108.295C363.053 105.679 361.7 101.531 361.7 95.8495V46.2044H352.907V39.1702C353.629 38.8996 354.936 38.4487 356.83 37.8175C358.724 37.096 360.167 36.5098 361.159 36.0589C362.692 34.8865 364 32.8575 365.082 29.9716C365.894 28.0778 367.382 23.3884 369.546 15.9033H380.368L380.909 35.7884H401.606V46.2044H381.044V84.216C381.044 89.2662 381.179 92.8284 381.45 94.9025C381.72 96.9767 382.307 98.3295 383.208 98.9607C384.11 99.5018 385.688 99.7724 387.943 99.7724C390.198 99.7724 392.542 99.5469 394.977 99.096C397.412 98.5549 399.441 97.9236 401.064 97.2022L403.635 104.777C401.11 106.671 397.412 108.385 392.542 109.918C387.672 111.451 382.938 112.217 378.339 112.217ZM467.105 112.353C464.129 112.353 461.965 111.721 460.612 110.459C459.259 109.196 458.583 107.303 458.583 104.777V101.125C456.148 104.101 452.721 106.761 448.302 109.106C443.883 111.361 439.464 112.488 435.045 112.488C426.388 112.488 420.21 110.279 416.513 105.86C412.816 101.351 410.967 93.9556 410.967 83.6749V45.528L404.203 43.6342V35.9236L427.2 34.1651H427.335L430.04 36.0589V83.6749C430.04 90.2582 430.852 94.8575 432.475 97.4727C434.098 100.088 437.12 101.396 441.538 101.396C446.859 101.396 451.819 99.3215 456.418 95.1731V45.528L447.355 43.4989V35.9236L471.84 34.1651H472.11L475.357 36.0589V102.613H482.932L482.797 110.324C482.436 110.414 480.768 110.775 477.792 111.406C474.816 112.037 471.253 112.353 467.105 112.353ZM516.029 112.488C510.438 112.488 505.433 111.18 501.014 108.565C496.595 105.86 493.078 101.711 490.463 96.12C487.848 90.5287 486.54 83.5396 486.54 75.1527C486.54 67.5775 488.073 60.6785 491.139 54.456C494.296 48.1433 498.895 43.1382 504.937 39.4407C510.979 35.7433 518.239 33.8945 526.716 33.8945C530.143 33.8945 533.389 34.2553 536.456 34.9767V12.1156L523.199 10.2218V2.78182L551.065 0.0763622H551.471L555.258 2.91709V102.748H562.563V110.459C556.07 111.812 550.704 112.488 546.466 112.488C543.58 112.488 541.506 111.992 540.243 111C539.071 110.098 538.485 108.249 538.485 105.454V101.666C536.14 104.823 532.938 107.438 528.88 109.512C524.822 111.496 520.538 112.488 516.029 112.488ZM523.064 101.26C526.04 101.26 528.655 100.674 530.909 99.5018C533.254 98.2393 535.103 96.7513 536.456 95.0378V45.7985C535.824 44.8967 534.472 44.1302 532.397 43.4989C530.413 42.8676 528.249 42.552 525.904 42.552C520.133 42.552 515.488 45.0771 511.971 50.1273C508.544 55.0873 506.831 63.0684 506.831 74.0705C506.831 83.2691 508.319 90.1229 511.295 94.632C514.271 99.0509 518.194 101.26 523.064 101.26ZM583.798 23.4785C580.551 23.4785 577.981 22.5316 576.087 20.6378C574.193 18.744 573.247 16.3091 573.247 13.3331C573.247 9.90618 574.329 7.06545 576.493 4.81091C578.657 2.55636 581.543 1.42909 585.151 1.42909C588.758 1.42909 591.508 2.42109 593.402 4.40509C595.296 6.29891 596.243 8.68873 596.243 11.5745C596.243 15.1818 595.161 18.0676 592.996 20.232C590.832 22.3964 587.811 23.4785 583.933 23.4785H583.798ZM576.628 48.6393L567.024 46.0691V37.0058L591.779 34.0298H592.049L595.837 36.7353V101.801L604.9 102.884V111H567.159V102.884L576.628 101.666V48.6393ZM609.862 73.5295C609.862 65.0524 611.53 57.8378 614.867 51.8858C618.294 45.9338 622.848 41.4698 628.53 38.4938C634.211 35.4276 640.389 33.8945 647.062 33.8945C658.425 33.8945 667.173 37.4116 673.305 44.4458C679.528 51.3898 682.639 60.8589 682.639 72.8531C682.639 81.4204 680.925 88.7251 677.498 94.7673C674.162 100.719 669.653 105.183 663.971 108.159C658.38 111.045 652.202 112.488 645.439 112.488C634.166 112.488 625.418 109.016 619.196 102.072C612.973 95.0378 609.862 85.5236 609.862 73.5295ZM646.521 103.695C656.712 103.695 661.807 93.8655 661.807 74.2058C661.807 63.9251 660.589 56.1244 658.154 50.8036C655.72 45.3927 651.752 42.6873 646.25 42.6873C635.789 42.6873 630.559 52.5171 630.559 72.1767C630.559 82.4575 631.821 90.3033 634.346 95.7142C636.962 101.035 641.02 103.695 646.521 103.695Z"/><path fill="url(#paint0_linear_2003_29)" d="M702.917 112.217C700.121 112.217 697.687 111.271 695.612 109.377C693.538 107.393 692.501 104.913 692.501 101.937C692.501 98.6 693.673 95.8945 696.018 93.8204C698.453 91.656 701.384 90.5738 704.811 90.5738C708.057 90.5738 710.628 91.6109 712.521 93.6851C714.415 95.6691 715.362 98.0589 715.362 100.855C715.362 104.372 714.19 107.167 711.845 109.241C709.591 111.225 706.615 112.217 702.917 112.217Z"/><defs><linearGradient id="paint0_linear_2003_29" x1="684.822" x2="722.425" y1="134.591" y2="75.23" gradientUnits="userSpaceOnUse"><stop stop-color="#7309F9"/><stop offset="1" stop-color="#fff"/></linearGradient></defs></svg>